#!OML:ASF F:\VICON\USERDATA\INSTALL\rory3\rory3.ASF
:FULLY-SPECIFIED
:DEGREES
1
root 1.3188903634857683 18.028389597829904 -29.617082749451768 -4.138768109033159 -2.159096727604755 0.2968018862677484
lfemur -8.904440344055073 -0.6554296864861935 -23.566494252047853
ltibia 22.34690640160872
lfoot -11.912395775142636 -5.416095033396582
ltoes -5.189857379766607
rfemur -18.21759698236807 -0.6707140715607016 21.420406708706388
rtibia 71.20658198635154
rfoot -3.3122768184472164 -3.336207240184186
rtoes 1.0802736834628055
lowerback 11.667786038316466 0.6819302454476143 -0.9316713292083809
upperback 1.2504401909871878 0.8239138305799731 0.7031970166258235
thorax -5.257491981632348 0.4318654519964824 1.129900043594646
lowerneck -16.175396030902498 -2.8010215702108714 -1.5538146087033613
upperneck 24.921086444515197 -3.285043324284774 -0.9240564295170819
head 10.69918627170779 -1.7643412574663058 -0.5248287352004332
lclavicle -1.387428024067241e-15 -1.8436985656384944e-15
lhumerus -32.93529548194542 3.843468964605838 81.33499977140816
lradius 19.86580854827632
lwrist 0.6037975621775509
lhand -28.109197618925847 20.432409057067154
lfingers 7.125019999999999
lthumb -1.491337603578074 50.40700916312878
rclavicle -1.387428024067241e-15 -1.8436985656384944e-15
rhumerus -25.65160604527287 -20.45040338843819 -78.3442953821219
rradius 26.959595417392798
rwrist 4.537952478336342
rhand -18.090200604135546 23.779191883978267
rfingers 7.125019999999999
rthumb 8.183289394073787 -6.042288125075771
2
root 1.322520270614198 17.98229245378135 -28.993381938252284 -4.060268755684911 -0.5752252150901415 0.6014949604115158
lfemur -7.464801244469429 -0.5244530826678693 -24.014093490080118
ltibia 23.540505950877993
lfoot -14.981492247654511 -6.078484039431354
ltoes -5.654916724078731
rfemur -22.383993628658033 -1.9414103187104104 21.23560715078983
rtibia 69.45078175260926
rfoot -6.886832352385136 -3.366867048448371
rtoes 1.1972536108944487
lowerback 12.008182589995313 -0.5318625391980067 -2.6140709247424843
upperback 0.026931772888408062 -0.9509003921811381 1.7773381388827378
thorax -6.646493647350203 -0.3495230174366461 3.5237498481426375
lowerneck -11.838952436137903 -2.1651575687125617 -3.0928798175126744
upperneck 23.92119291099212 -2.124068924111688 -1.0055885323430653
head 9.526316850952535 -1.383716041305152 -0.07245787215409247
lclavicle -1.3874280268842017e-15 -1.843698623095201e-15
lhumerus -34.026593411650026 4.128808407314837 81.90959649405721
lradius 21.755305043014758
lwrist 1.6418339528216537
lhand -28.270196960027242 22.27200405170405
lfingers 7.125019999999999
lthumb -1.6468569674275275 52.24540395735872
rclavicle -1.3874280268842017e-15 -1.843698623095201e-15
rhumerus -29.29490070122229 -16.69870825883686 -77.19779729858337
rradius 27.59769404877212
rwrist 2.9680948750360754
rhand -18.085800637693257 23.354594368722328
rfingers 7.125019999999999
rthumb 8.18752935505379 -6.4668156589254355
3
root 1.322410274915861 17.92299613463507 -28.372783327768232 -4.119038253698015 0.5612013938257105 1.1283206073808936
lfemur -5.521032828569068 -0.16271258819198176 -24.5732924621401
ltibia 24.38540554286021
lfoot -18.18488946019921 -6.791622952209755
ltoes -6.548715365979298
rfemur -25.603491531441804 -2.8387175234430044 20.822507597877895
rtibia 65.38928504375113
rfoot -9.270099494761634 -5.38375204684039
rtoes 0.6101055972586433
lowerback 12.276179892484082 -0.43795516082188995 -2.740260666865815
upperback 0.7477221301156968 -0.8819886569035884 1.2352341482324916
thorax -6.042981589825849 -0.3418590722085803 3.00262210543126
lowerneck -14.608216332856202 -2.7850519736462562 -2.0143971837755976
upperneck 24.252890760872635 -3.203304433240908 -0.8332214178562608
head 10.163695689565062 -1.7633812954299128 -0.3698213637858398
lclavicle -1.3874280463002685e-15 -1.8436985988664935e-15
lhumerus -29.97570061605849 -1.3217410368750446 82.75029170885466
lradius 23.82720116797603
lwrist 4.017527932112284
lhand -27.93429829823038 28.921785572770993
lfingers 7.125019999999999
lthumb -1.3224382931653467 58.897485599970395
rclavicle -1.3874280463002685e-15 -1.8436985988664935e-15
rhumerus -29.613600219295893 -19.830604129410652 -77.02639750760375
rradius 27.442094612534493
rwrist 3.1047846683100686
rhand -18.213999594338002 23.889891228129223
rfingers 7.125019999999999
rthumb 8.063760406641578 -5.936238751180085
4
root 1.3186503460985002 17.878598891079555 -27.730082544394698 -3.8526003896249525 1.8214945309004709 2.010848303465346
lfemur -3.309054070959365 -0.11662978253307354 -25.483791008414144
ltibia 23.985305199154197
lfoot -20.3082865651424 -7.501901819909947
ltoes -6.4113656339274625
rfemur -28.143589977234473 -3.406235833137277 19.933108906226988
rtibia 59.24958818408658
rfoot -11.303497067722722 -7.747236164131678
rtoes 1.038793882087687
lowerback 11.927783410896804 -0.7521180562042911 -3.4875984710005214
upperback 1.1356324491943866 -1.4030413975404348 0.9447363508811566
thorax -5.390410220282922 -0.6021625941812301 3.1906413478623916
lowerneck -15.809700783709232 -2.842010536074784 -1.627363428025844
upperneck 23.998992405911277 -3.4110016433060752 -0.6245457219881909
head 10.29869332531063 -1.7948400724854694 -0.4056073044406323
lclavicle -1.387428047790233e-15 -1.8436985940207308e-15
lhumerus -27.097705726662372 -4.0918957417723005 82.48569315971277
lradius 26.25679673938295
lwrist 5.932753122198058
lhand -27.71429918745677 24.495297832498487
lfingers 7.125019999999999
lthumb -1.1099791787132476 54.472197816873845
rclavicle -1.387428047790233e-15 -1.8436985940207308e-15
rhumerus -30.32069919786095 -21.365902336433226 -76.71429798184741
rradius 27.161995029399016
rwrist 3.062514787854031
rhand -17.77550316745807 23.93359105632793
rfingers 7.125019999999999
rthumb 8.486976827941332 -5.875909071130833
